<?xml version="1.0" encoding="UTF-8" standalone="no"?>
<svg
   version="1.1"
   id="Layer_1"
   x="0px"
   y="0px"
   viewBox="0 0 1000 277.81994"
   xml:space="preserve"
   inkscape:version="1.1.1 (3bf5ae0d25, 2021-09-20)"
   sodipodi:docname="The Real Housewives.svg"
   width="1000"
   height="277.81995"
   xmlns:inkscape="http://www.inkscape.org/namespaces/inkscape"
   xmlns:sodipodi="http://sodipodi.sourceforge.net/DTD/sodipodi-0.dtd"
   xmlns="http://www.w3.org/2000/svg"
   xmlns:svg="http://www.w3.org/2000/svg"
   xmlns:rdf="http://www.w3.org/1999/02/22-rdf-syntax-ns#"
   xmlns:cc="http://creativecommons.org/ns#"
   xmlns:dc="http://purl.org/dc/elements/1.1/"><metadata
     id="metadata81"><rdf:RDF><cc:Work
         rdf:about=""><dc:format>image/svg+xml</dc:format><dc:type
           rdf:resource="http://purl.org/dc/dcmitype/StillImage" /></cc:Work></rdf:RDF></metadata><defs
     id="defs79" /><sodipodi:namedview
     pagecolor="#ffffff"
     bordercolor="#666666"
     borderopacity="1"
     objecttolerance="10"
     gridtolerance="10"
     guidetolerance="10"
     inkscape:pageopacity="0"
     inkscape:pageshadow="2"
     inkscape:window-width="1366"
     inkscape:window-height="705"
     id="namedview77"
     showgrid="false"
     fit-margin-top="0"
     fit-margin-left="0"
     fit-margin-right="0"
     fit-margin-bottom="0"
     inkscape:zoom="0.5"
     inkscape:cx="541"
     inkscape:cy="103"
     inkscape:window-x="-8"
     inkscape:window-y="-8"
     inkscape:window-maximized="1"
     inkscape:current-layer="Layer_1"
     inkscape:document-rotation="0"
     inkscape:pagecheckerboard="0" /><style
     type="text/css"
     id="style3">
	.st0{fill:#013B82;}
	.st1{fill:#F47920;}
	.st2{fill:#8B6520;}
	.st3{fill:#853039;}
	.st4{fill:#ED1B2F;}
	.st5{fill:#FDB913;}
	.st6{fill:#00C0F3;}
</style><g
     id="g13239"><path
       d="m 61.906072,111.48022 c 0,-4.27227 -1.005245,-7.37176 -2.59688,-10.05241 H 49.089249 c 1.005238,1.84294 1.591635,3.9372 1.591635,6.28276 0,2.84818 -1.424093,4.10473 -4.356045,4.10473 H 27.141494 V 101.26027 H 16.251392 V 111.8153 H 4.7748925 v 12.73304 H 16.251392 v 5.36129 h 10.890102 v -5.36129 H 48.41909 c 10.387486,0 13.486982,-5.2775 13.486982,-13.06812 z"
       style="font-weight:bold;font-size:174.671px;line-height:1.25;font-family:Gotham;-inkscape-font-specification:'Gotham Bold';letter-spacing:-3.02px;fill:#757779;fill-opacity:1;stroke-width:0.628281"
       id="path8475" /><path
       d="M 61.152138,95.771539 V 83.038497 H 36.104895 c -6.031448,0 -9.130937,-3.099496 -9.130937,-7.958156 0,-4.858667 3.099489,-7.706845 9.130937,-7.706845 H 61.152138 V 54.640441 H 32.08393 c -10.303719,0 -16.67024,5.6126 -16.67024,15.246153 0,6.45029 3.434575,10.219944 7.204223,13.151903 H 0 v 12.733042 z"
       style="font-weight:bold;font-size:174.671px;line-height:1.25;font-family:Gotham;-inkscape-font-specification:'Gotham Bold';letter-spacing:-3.02px;fill:#757779;fill-opacity:1;stroke-width:0.628281"
       id="path8477" /><path
       d="m 62.157377,25.40406 c 0,-8.125693 -3.183258,-14.157141 -8.377004,-18.3456431 l -6.450296,7.2879971 c 3.267032,3.518343 4.607356,6.617833 4.607356,10.890103 0,5.696362 -3.015721,9.717328 -8.795858,10.973877 V 4.9641659 c -1.172781,-0.083768 -2.345562,-0.1675367 -3.3508,-0.1675367 -12.733049,0 -24.377085,6.8691438 -24.377085,21.8639798 0,13.068128 10.55503,22.199065 23.371847,22.199065 h 0.167536 c 13.738293,0 23.204304,-9.968639 23.204304,-23.455614 z M 35.183425,36.377937 c -5.780137,-1.005245 -9.549791,-4.439813 -9.549791,-9.717328 0,-5.361283 3.853423,-8.712083 9.549791,-9.466017 z"
       style="font-weight:bold;font-size:174.671px;line-height:1.25;font-family:Gotham;-inkscape-font-specification:'Gotham Bold';letter-spacing:-3.02px;fill:#757779;fill-opacity:1;stroke-width:0.628281"
       id="path8479" /><path
       d="M 72.829055,129.65607 H 107.2856 V 92.002521 h 15.09693 l 25.04316,37.653549 h 39.78487 L 157.54952,86.318977 C 173.00168,79.747362 183.1255,67.136983 183.1255,48.1326 v -0.355227 c 0,-12.255164 -3.72983,-21.846161 -11.01187,-28.9506 C 163.76591,10.301444 150.62269,5.3283356 131.6183,5.3283356 H 72.829055 Z M 107.2856,65.005647 V 35.166988 h 22.5566 c 11.54471,0 18.64916,4.973109 18.64916,14.741716 v 0.355221 c 0,9.058171 -6.74922,14.741722 -18.47156,14.741722 z"
       style="font-weight:900;font-size:174.671px;line-height:1.25;font-family:Gotham;-inkscape-font-specification:'Gotham Heavy';letter-spacing:-3.02px;fill:#000000;stroke-width:1.33209"
       id="path8481" /><path
       d="m 235.79814,131.96501 c 19.18198,0 32.50282,-7.81488 41.73859,-19.53722 L 258.88756,96.975636 c -6.92681,6.749214 -13.32082,9.768604 -21.31331,9.768604 -10.47905,0 -18.11633,-5.32833 -20.78049,-15.807387 h 64.29519 c 0.17761,-2.308941 0.17761,-4.795487 0.17761,-6.926823 0,-28.240159 -15.27455,-52.572878 -48.48781,-52.572878 -28.41777,0 -48.48782,22.201388 -48.48782,50.263931 v 0.355227 c 0,29.83866 21.31333,49.9087 51.50721,49.9087 z M 216.26092,73.708585 c 1.77611,-10.479048 7.81489,-17.405877 16.69544,-17.405877 9.23577,0 15.45216,6.749218 16.69543,17.405877 z"
       style="font-weight:900;font-size:174.671px;line-height:1.25;font-family:Gotham;-inkscape-font-specification:'Gotham Heavy';letter-spacing:-3.02px;fill:#000000;stroke-width:1.33209"
       id="path8483" /><path
       d="m 319.29897,131.7874 c 12.61039,0 21.66856,-4.7955 28.24016,-12.07755 v 9.94622 h 33.39088 V 74.419027 c 0,-13.498437 -3.01938,-23.444655 -10.30144,-30.549094 -7.63728,-7.637277 -19.3596,-11.722333 -36.58788,-11.722333 -16.51783,0 -28.06254,3.019388 -38.89681,7.459666 l 6.92683,23.799881 c 8.52533,-3.374615 16.34022,-5.328329 26.46404,-5.328329 12.96561,0 19.182,5.68355 19.182,15.629767 v 1.598506 c -5.50595,-1.953726 -14.20889,-3.729836 -23.08945,-3.729836 -22.55659,0 -37.65354,10.301438 -37.65354,30.193875 v 0.35522 c 0,19.182 14.03128,29.66105 32.32521,29.66105 z m 12.07756,-21.13572 c -6.92684,0 -11.89994,-3.90744 -11.89994,-10.47905 v -0.355216 c 0,-7.104446 5.68355,-11.899944 15.45216,-11.899944 4.9731,0 9.76861,1.065668 13.14322,2.486551 v 4.440284 c 0,9.590985 -6.92683,15.807375 -16.69544,15.807375 z"
       style="font-weight:900;font-size:174.671px;line-height:1.25;font-family:Gotham;-inkscape-font-specification:'Gotham Heavy';letter-spacing:-3.02px;fill:#000000;stroke-width:1.33209"
       id="path8485" /><path
       d="m 389.45069,129.65607 h 33.74609 V 0 h -33.74609 z"
       style="font-weight:900;font-size:174.671px;line-height:1.25;font-family:Gotham;-inkscape-font-specification:'Gotham Heavy';letter-spacing:-3.02px;fill:#000000;stroke-width:1.33209"
       id="path8487" /><path
       d="M 2.0874842,275.51101 H 36.544019 v -47.24454 h 44.225147 v 47.24454 H 115.22572 V 151.18327 H 80.769166 v 46.5341 H 36.544019 v -46.5341 H 2.0874842 Z"
       style="font-weight:900;font-size:174.671px;line-height:1.25;font-family:Gotham;-inkscape-font-specification:'Gotham Heavy';letter-spacing:-3.02px;fill:#000000;stroke-width:1.33209"
       id="path8489" /><path
       d="m 174.55573,277.81995 c 30.90432,0 53.28332,-22.91182 53.28332,-50.26392 v -0.35523 c 0,-27.3521 -22.20139,-49.9087 -52.92809,-49.9087 -30.90434,0 -53.28332,22.91182 -53.28332,50.26393 v 0.35522 c 0,27.35209 22.20138,49.9087 52.92809,49.9087 z m 0.35523,-28.59538 c -11.89995,0 -20.42528,-9.94622 -20.42528,-21.66854 v -0.35523 c 0,-11.54472 7.81489,-21.31333 20.07005,-21.31333 11.89994,0 20.42527,9.94622 20.42527,21.66856 v 0.35522 c 0,11.54471 -7.81488,21.31332 -20.07004,21.31332 z"
       style="font-weight:900;font-size:174.671px;line-height:1.25;font-family:Gotham;-inkscape-font-specification:'Gotham Heavy';letter-spacing:-3.02px;fill:#000000;stroke-width:1.33209"
       id="path8491" /><path
       d="m 267.08505,277.64234 c 13.67605,0 22.5566,-7.28205 28.773,-15.27455 v 13.14322 h 33.74609 v -96.08758 h -33.74609 v 52.04004 c 0,10.47906 -6.03879,16.16261 -14.03128,16.16261 -8.17011,0 -13.67606,-5.68355 -13.67606,-16.16261 v -52.04004 h -33.7461 v 62.87431 c 0,21.84616 12.25517,35.3446 32.68044,35.3446 z"
       style="font-weight:900;font-size:174.671px;line-height:1.25;font-family:Gotham;-inkscape-font-specification:'Gotham Heavy';letter-spacing:-3.02px;fill:#000000;stroke-width:1.33209"
       id="path8493" /><path
       d="m 379.88523,277.64234 c 23.44465,0 39.25204,-11.01188 39.25204,-32.1476 v -0.35523 c 0,-18.64915 -15.09694,-25.22077 -34.10132,-30.5491 -10.12384,-3.01938 -15.62978,-4.79549 -15.62978,-8.52533 v -0.35522 c 0,-2.66416 2.66418,-4.61788 7.8149,-4.61788 7.63727,0 18.47154,3.3746 28.41776,8.88055 l 11.54472,-21.31332 c -11.01189,-7.10445 -25.57599,-11.1895 -39.60726,-11.1895 -22.20139,0 -38.5416,11.36711 -38.5416,31.79238 v 0.35522 c 0,19.3596 15.09694,25.7536 34.10131,30.72671 10.12384,2.84177 15.45217,4.44027 15.45217,8.1701 v 0.35524 c 0,3.37459 -2.66416,5.1507 -8.52533,5.1507 -9.94621,0 -22.02377,-3.72983 -33.03565,-11.01188 l -12.61039,20.42528 c 13.32083,9.59099 29.30582,14.20888 45.46843,14.20888 z"
       style="font-weight:900;font-size:174.671px;line-height:1.25;font-family:Gotham;-inkscape-font-specification:'Gotham Heavy';letter-spacing:-3.02px;fill:#000000;stroke-width:1.33209"
       id="path8495" /><path
       d="m 474.24691,277.81995 c 19.182,0 32.5028,-7.81489 41.73859,-19.53721 l -18.64921,-15.45217 c -6.92678,6.74922 -13.32078,9.76861 -21.31327,9.76861 -10.47906,0 -18.11632,-5.32832 -20.7805,-15.80738 h 64.29517 c 0.17765,-2.30895 0.17765,-4.7955 0.17765,-6.92683 0,-28.24016 -15.27454,-52.57287 -48.48782,-52.57287 -28.41777,0 -48.48782,22.20138 -48.48782,50.26393 v 0.35522 c 0,29.83866 21.31333,49.9087 51.50721,49.9087 z m -19.53722,-58.25643 c 1.77611,-10.47905 7.81488,-17.40588 16.69544,-17.40588 9.23577,0 15.45216,6.74922 16.69544,17.40588 z"
       style="font-weight:900;font-size:174.671px;line-height:1.25;font-family:Gotham;-inkscape-font-specification:'Gotham Heavy';letter-spacing:-3.02px;fill:#000000;stroke-width:1.33209"
       id="path8497" /><path
       d="m 543.96888,276.22145 h 28.95053 l 15.985,-49.9087 15.62982,49.9087 h 29.12818 l 29.6611,-96.79802 h -32.50283 l -12.96563,48.66543 -14.91937,-49.02065 h -27.88489 l -14.74173,48.66543 -12.61044,-48.31021 h -33.03565 z"
       style="font-weight:900;font-size:174.671px;line-height:1.25;font-family:Gotham;-inkscape-font-specification:'Gotham Heavy';letter-spacing:-3.02px;fill:#000000;stroke-width:1.33209"
       id="path8499" /><path
       d="m 750.88556,276.22145 h 30.72673 l 38.36399,-96.79802 h -34.98942 l -18.47157,56.12509 -18.47146,-56.12509 h -35.52219 z"
       style="font-weight:900;font-size:174.671px;line-height:1.25;font-family:Gotham;-inkscape-font-specification:'Gotham Heavy';letter-spacing:-3.02px;fill:#000000;stroke-width:1.33209"
       id="path8503" /><path
       d="m 865.77751,277.81995 c 19.18194,0 32.50284,-7.81489 41.73863,-19.53721 l -18.64922,-15.45217 c -6.92684,6.74922 -13.32077,9.76861 -21.3133,9.76861 -10.47905,0 -18.11637,-5.32832 -20.78046,-15.80738 h 64.29518 c 0.17758,-2.30895 0.17758,-4.7955 0.17758,-6.92683 0,-28.24016 -15.27458,-52.57287 -48.48777,-52.57287 -28.41778,0 -48.48783,22.20138 -48.48783,50.26393 v 0.35522 c 0,29.83866 21.31331,49.9087 51.50719,49.9087 z m -19.5372,-58.25643 c 1.77611,-10.47905 7.8149,-17.40588 16.69541,-17.40588 9.23579,0 15.45216,6.74922 16.69542,17.40588 z"
       style="font-weight:900;font-size:174.671px;line-height:1.25;font-family:Gotham;-inkscape-font-specification:'Gotham Heavy';letter-spacing:-3.02px;fill:#000000;stroke-width:1.33209"
       id="path8505" /><path
       d="m 960.7479,277.64234 c 23.44468,0 39.2521,-11.01188 39.2521,-32.1476 v -0.35523 c 0,-18.64915 -15.097,-25.22077 -34.10142,-30.5491 -10.12378,-3.01938 -15.62973,-4.79549 -15.62973,-8.52533 v -0.35522 c 0,-2.66416 2.66422,-4.61788 7.81483,-4.61788 7.63738,0 18.47158,3.3746 28.41785,8.88055 l 11.54473,-21.31332 c -11.01189,-7.10445 -25.57599,-11.1895 -39.60725,-11.1895 -22.20141,0 -38.54162,11.36711 -38.54162,31.79238 v 0.35522 c 0,19.3596 15.09695,25.7536 34.1013,30.72671 10.12378,2.84177 15.45222,4.44027 15.45222,8.1701 v 0.35524 c 0,3.37459 -2.66422,5.1507 -8.52538,5.1507 -9.9462,0 -22.02372,-3.72983 -33.03561,-11.01188 l -12.61048,20.42528 c 13.32084,9.59099 29.30583,14.20888 45.46846,14.20888 z"
       style="font-weight:900;font-size:174.671px;line-height:1.25;font-family:Gotham;-inkscape-font-specification:'Gotham Heavy';letter-spacing:-3.02px;fill:#000000;stroke-width:1.33209"
       id="path8507" /><path
       id="path9176"
       style="display:inline;fill:#000000;stroke-width:0.747417"
       d="m 706.85566,154.07345 a 18.664049,17.511507 0 0 1 -18.66407,17.5115 18.664049,17.511507 0 0 1 -18.66406,-17.5115 18.664049,17.511507 0 0 1 18.66406,-17.51152 18.664049,17.511507 0 0 1 18.66407,17.51152 z m -35.53705,121.43756 h 33.74597 v -96.08758 h -33.74597 z" /></g></svg>
